# xmcd
#
# Track frame offsets:
#	150
#	15015
#	31014
#	44705
#	54927
#	65673
#	76022
#	88842
#	96391
#	112360
#	121536
#	136161
#	147109
#	161157
#	173795
#	187889
#
# Disc length: 2653 seconds
#
# Revision: 1
# Processed by: cddbd v1.5.1PL2 Copyright (c) Steve Scherf et al.
# Submitted via: audiograbber 1.83.01
#
DISCID=ca0a5b10
DTITLE=Various Artist - Complete Country - Disc 1
DYEAR=2005
DGENRE=Country
TTITLE0=Slim Whitman - Mocking Bird Hill
TTITLE1=Willie Nelson - Always On My Mind
TTITLE2=Don Williams - Where Do We Go From Here
TTITLE3=Carl Paerkins - Daddy Sang Bass
TTITLE4=Patsy Cline - Stop Look And Listen
TTITLE5=Rick Nelson - Hello Mary Lou
TTITLE6=Lynn Anderson - Rose Garden
TTITLE7=Jim Reeves - Bimbo
TTITLE8=Anne Murray - Both Sides Now
TTITLE9=Faron Young - Hello Walls
TTITLE10=Don Gibson - I Can't Stop Loving You
TTITLE11=Jerry Lee Lewis - Another Place Another Time
TTITLE12=Don Fardon - Indian Reservation
TTITLE13=Kitty Wells - Making Believe
TTITLE14=Kenny Rogers - Sunshine
TTITLE15=Roy Drusky - I Can't Help It I'm Still In Love With You
EXTD=
EXTT0=
EXTT1=
EXTT2=
EXTT3=
EXTT4=
EXTT5=
EXTT6=
EXTT7=
EXTT8=
EXTT9=
EXTT10=
EXTT11=
EXTT12=
EXTT13=
EXTT14=
EXTT15=
PLAYORDER=
